<svg width="14" height="14" viewBox="0 0 14 14" fill="none" xmlns="http://www.w3.org/2000/svg">
<path d="M8.65142 9.91667C8.50208 9.91667 8.35275 9.8595 8.239 9.74575C8.01092 9.51767 8.01092 9.149 8.239 8.92092L9.74575 7.41417C9.85542 7.30392 9.91667 7.1575 9.91667 7.00117C9.91667 6.84483 9.856 6.699 9.74575 6.58875L8.239 5.08142C8.01092 4.85333 8.01092 4.48408 8.239 4.25658C8.46708 4.0285 8.83575 4.0285 9.06383 4.25658L10.5706 5.76333C10.9007 6.0935 11.0833 6.53333 11.0833 7.00058C11.0833 7.46783 10.9013 7.90767 10.5706 8.23842L9.06383 9.74517C8.95008 9.85892 8.80075 9.91667 8.65142 9.91667ZM5.761 9.74283C5.98908 9.51475 5.98908 9.14608 5.761 8.918L4.25425 7.41125C4.144 7.301 4.08333 7.15458 4.08333 6.99825C4.08333 6.84192 4.144 6.69608 4.25425 6.58583L5.761 5.07908C5.98908 4.851 5.98908 4.48233 5.761 4.25425C5.53292 4.02617 5.16425 4.02617 4.93617 4.25425L3.42942 5.761C3.09867 6.09175 2.91667 6.531 2.91667 6.99883C2.91667 7.46667 3.09867 7.90592 3.42942 8.23667L4.93617 9.74342C5.04992 9.85717 5.19925 9.91433 5.34858 9.91433C5.49792 9.91433 5.64725 9.85658 5.761 9.74283ZM14 11.0833V2.91667C14 1.30842 12.6916 0 11.0833 0H2.91667C1.30842 0 0 1.30842 0 2.91667V11.0833C0 12.6916 1.30842 14 2.91667 14H11.0833C12.6916 14 14 12.6916 14 11.0833ZM11.0833 1.16667C12.0482 1.16667 12.8333 1.95183 12.8333 2.91667V11.0833C12.8333 12.0482 12.0482 12.8333 11.0833 12.8333H2.91667C1.95183 12.8333 1.16667 12.0482 1.16667 11.0833V2.91667C1.16667 1.95183 1.95183 1.16667 2.91667 1.16667H11.0833Z" fill="white"/>
</svg>
