<svg width="8" height="8" viewBox="0 0 8 8" fill="none" xmlns="http://www.w3.org/2000/svg">
<g clip-path="url(#clip0_10_21)">
<path d="M7.75561 3.13588C7.4548 2.6433 7.07537 2.20331 6.63236 1.83337L7.56534 0.900386C7.69318 0.768013 7.68951 0.557076 7.55714 0.429233C7.42802 0.304514 7.2233 0.304514 7.09417 0.429233L6.07955 1.44518C5.45058 1.0716 4.73152 0.876879 3.99999 0.882065C1.93709 0.882065 0.761522 2.29421 0.244386 3.1359C-0.0814619 3.66294 -0.0814619 4.32888 0.244386 4.85593C0.545196 5.34852 0.924633 5.78851 1.36764 6.15845L0.434659 7.09143C0.302286 7.21927 0.298616 7.43023 0.426459 7.56258C0.554302 7.69496 0.765255 7.69863 0.897612 7.57079C0.900392 7.5681 0.903126 7.56537 0.905812 7.56258L1.92276 6.54563C2.55095 6.91917 3.26915 7.1142 3.99999 7.10975C6.0629 7.10975 7.23846 5.69761 7.7556 4.85592C8.08146 4.32888 8.08146 3.66294 7.75561 3.13588ZM2.00075 3.99591C1.99886 2.89358 2.89092 1.99845 3.99325 1.99656C4.41032 1.99584 4.81716 2.12581 5.15658 2.36818L4.67276 2.85201C4.46965 2.72952 4.23719 2.66423 4.00001 2.66308C3.26391 2.66308 2.66717 3.25981 2.66717 3.99591C2.66833 4.23309 2.73362 4.46555 2.8561 4.66866L2.37228 5.15248C2.13069 4.81521 2.00077 4.41077 2.00075 3.99591ZM4.00001 5.99517C3.58515 5.99515 3.1807 5.86523 2.84344 5.62363L3.32726 5.13981C3.53037 5.2623 3.76283 5.32759 4.00001 5.32874C4.73611 5.32874 5.33284 4.73201 5.33284 3.99591C5.33169 3.75873 5.2664 3.52627 5.14391 3.32316L5.62773 2.83934C6.26832 3.73641 6.06042 4.98295 5.16334 5.62354C4.82392 5.86592 4.41709 5.99589 4.00001 5.99517Z" fill="white"/>
</g>
<defs>
<clipPath id="clip0_10_21">
<rect width="8" height="8" fill="white"/>
</clipPath>
</defs>
</svg>
