<svg width="9" height="10" viewBox="0 0 9 10" fill="none" xmlns="http://www.w3.org/2000/svg">
<path d="M0.16841 7.5C0.513058 8.09816 1.27737 8.30367 1.87554 7.95902C1.87595 7.95879 1.87634 7.95855 1.87675 7.95832L2.06216 7.85123C2.41216 8.15068 2.81446 8.38291 3.24882 8.53623V8.75C3.24882 9.44035 3.80847 10 4.49882 10C5.18917 10 5.74882 9.44035 5.74882 8.75V8.53625C6.18324 8.38268 6.58556 8.15018 6.93548 7.85041L7.12173 7.95791C7.72003 8.30309 8.4849 8.09789 8.83007 7.49957C9.17525 6.90127 8.97005 6.13641 8.37173 5.79123L8.18673 5.68457C8.27001 5.23143 8.27001 4.76689 8.18673 4.31373L8.37173 4.20707C8.97003 3.86189 9.17525 3.09705 8.83007 2.49873C8.4849 1.90043 7.72005 1.69521 7.12173 2.04039L6.93632 2.14748C6.58597 1.8484 6.18339 1.6166 5.74882 1.46375V1.25C5.74882 0.559648 5.18917 0 4.49882 0C3.80847 0 3.24882 0.559648 3.24882 1.25V1.46375C2.81441 1.61732 2.41208 1.84982 2.06216 2.14959L1.87591 2.04168C1.27759 1.69648 0.512746 1.9017 0.16757 2.5C-0.177606 3.0983 0.0275896 3.86316 0.62591 4.20834L0.81091 4.315C0.727629 4.76814 0.727629 5.23268 0.81091 5.68584L0.62591 5.7925C0.0292498 6.13859 -0.175281 6.90195 0.16841 7.5ZM4.49882 3.33334C5.41929 3.33334 6.16548 4.07953 6.16548 5C6.16548 5.92047 5.41929 6.66666 4.49882 6.66666C3.57835 6.66666 2.83216 5.92047 2.83216 5C2.83216 4.07953 3.57835 3.33334 4.49882 3.33334Z" fill="white"/>
</svg>
