<svg width="8" height="7" viewBox="0 0 8 7" fill="none" xmlns="http://www.w3.org/2000/svg">
<path d="M4.00001 4.44669C4.73612 4.44669 5.33285 3.84995 5.33285 3.11385C5.33285 2.37774 4.73612 1.78101 4.00001 1.78101C3.26391 1.78101 2.66718 2.37774 2.66718 3.11385C2.66718 3.84995 3.26391 4.44669 4.00001 4.44669Z" fill="white"/>
<path d="M7.75561 2.25384C7.2388 1.41215 6.06324 0 4 0C1.93676 0 0.761196 1.41215 0.244386 2.25384C-0.0814621 2.78088 -0.0814621 3.44682 0.244386 3.97388C0.761196 4.81557 1.93676 6.22772 4 6.22772C6.06324 6.22772 7.2388 4.81557 7.75561 3.97388C8.08146 3.44682 8.08146 2.78088 7.75561 2.25384ZM4 5.11311C2.89585 5.11311 2.00074 4.218 2.00074 3.11385C2.00074 2.0097 2.89585 1.11459 4 1.11459C5.10415 1.11459 5.99926 2.0097 5.99926 3.11385C5.99815 4.21755 5.1037 5.112 4 5.11311Z" fill="white"/>
</svg>
