<svg width="14" height="11" viewBox="0 0 14 11" fill="none" xmlns="http://www.w3.org/2000/svg">
<path d="M11.7905 -2.75998e-06C12.3763 0.000306321 12.938 0.233113 13.3523 0.647285C13.7666 1.06146 13.9995 1.62312 14 2.20893L14 7.8917C14.0001 8.29969 13.8871 8.69972 13.6736 9.04738C13.4601 9.39504 13.1544 9.67671 12.7905 9.86113C12.4266 10.0455 12.0186 10.1255 11.612 10.0921C11.2054 10.0586 10.816 9.91316 10.4871 9.6718L8.28222 8.05332C8.2534 8.44643 8.11982 8.82466 7.89538 9.14869C7.67094 9.47272 7.36382 9.73074 7.00593 9.89593C6.64804 10.0611 6.25244 10.1274 5.86025 10.088C5.46805 10.0486 5.09356 9.9049 4.7757 9.6718L0.901031 6.83041C0.62173 6.62531 0.394628 6.35735 0.238097 6.04821C0.0815658 5.73906 1.4812e-07 5.39741 1.78413e-07 5.0509C2.08706e-07 4.70438 0.0815659 4.36273 0.238097 4.05359C0.394629 3.74444 0.62173 3.47648 0.901031 3.27138L4.7757 0.429997C5.09349 0.196934 5.46787 0.0532042 5.85998 0.0137358C6.25208 -0.0257326 6.6476 0.0405 7.00546 0.205554C7.36332 0.370609 7.67045 0.628466 7.89497 0.95234C8.11949 1.27622 8.2532 1.6543 8.28222 2.04731L10.4871 0.428831C10.8648 0.150743 11.3214 0.000505158 11.7905 -2.75998e-06Z" fill="white"/>
</svg>
