<svg width="8" height="11" viewBox="0 0 8 11" fill="none" xmlns="http://www.w3.org/2000/svg">
<path d="M1.55556 0C1.143 0 0.747335 0.163889 0.455612 0.455612C0.163889 0.747335 0 1.143 0 1.55556V9.11112C8.69404e-09 9.52368 0.163889 9.91934 0.455612 10.2111C0.747335 10.5028 1.143 10.6667 1.55556 10.6667C1.96812 10.6667 2.36378 10.5028 2.6555 10.2111C2.94722 9.91934 3.11111 9.52368 3.11111 9.11112V1.55556C3.11111 1.143 2.94722 0.747335 2.6555 0.455612C2.36378 0.163889 1.96812 0 1.55556 0Z" fill="white"/>
<path d="M6.44444 0C6.03188 0 5.63622 0.163889 5.3445 0.455612C5.05277 0.747335 4.88889 1.143 4.88889 1.55556V9.11112C4.88889 9.52368 5.05277 9.91934 5.3445 10.2111C5.63622 10.5028 6.03188 10.6667 6.44444 10.6667C6.857 10.6667 7.25266 10.5028 7.54439 10.2111C7.83611 9.91934 8 9.52368 8 9.11112V1.55556C8 1.143 7.83611 0.747335 7.54439 0.455612C7.25266 0.163889 6.857 0 6.44444 0Z" fill="white"/>
</svg>
