<svg width="9" height="10" viewBox="0 0 9 10" fill="none" xmlns="http://www.w3.org/2000/svg">
<path d="M7.29056 3.31764L3.31518 0.402587C3.00468 0.175219 2.63728 0.0382723 2.25372 0.00692551C1.87015 -0.0244213 1.48539 0.0510565 1.1421 0.224992C0.798798 0.398929 0.51037 0.664529 0.308781 0.992353C0.107192 1.32018 0.000317243 1.69742 2.51489e-06 2.08227V7.9153C-0.000596207 8.30052 0.10572 8.67835 0.307117 9.00673C0.508514 9.33512 0.79709 9.60117 1.14072 9.77528C1.48436 9.94938 1.86956 10.0247 2.25347 9.99288C2.63738 9.96105 3.00492 9.8233 3.31518 9.59497L7.29056 6.67992C7.55434 6.48634 7.76883 6.23337 7.91668 5.94149C8.06452 5.6496 8.14156 5.32701 8.14156 4.99982C8.14156 4.67263 8.06452 4.35004 7.91668 4.05816C7.76883 3.76628 7.55434 3.51331 7.29056 3.31973V3.31764Z" fill="white"/>
</svg>
