<svg width="14" height="11" viewBox="0 0 14 11" fill="none" xmlns="http://www.w3.org/2000/svg">
<path d="M2.20951 10.0995C1.62371 10.0992 1.06198 9.86636 0.647699 9.45219C0.233419 9.03802 0.000463816 8.47635 7.85544e-08 7.89054V2.20777C-0.000108752 1.79978 0.112866 1.39975 0.32638 1.05209C0.539893 0.704433 0.845588 0.422758 1.20952 0.238345C1.57345 0.0539317 1.98137 -0.0260024 2.38799 0.00741916C2.7946 0.0408408 3.184 0.18631 3.51293 0.427673L5.71778 2.04616C5.7466 1.65304 5.88018 1.27481 6.10462 0.950781C6.32906 0.626748 6.63618 0.368732 6.99407 0.203544C7.35196 0.0383555 7.74756 -0.027978 8.13975 0.0114362C8.53195 0.0508504 8.90644 0.194574 9.2243 0.427673L13.099 3.26906C13.3783 3.47416 13.6054 3.74212 13.7619 4.05126C13.9184 4.36041 14 4.70206 14 5.04857C14 5.39509 13.9184 5.73674 13.7619 6.04589C13.6054 6.35503 13.3783 6.62299 13.099 6.82809L9.2243 9.66947C8.90652 9.90254 8.53213 10.0463 8.14002 10.0857C7.74792 10.1252 7.3524 10.059 6.99454 9.89392C6.63669 9.72886 6.32955 9.47101 6.10503 9.14713C5.88051 8.82326 5.7468 8.44518 5.71778 8.05216L3.51293 9.67064C3.13521 9.94873 2.67857 10.099 2.20951 10.0995Z" fill="white"/>
</svg>
